<?xml version="1.0" standalone="no"?>
<!DOCTYPE svg PUBLIC "-//W3C//DTD SVG 20010904//EN"
 "http://www.w3.org/TR/2001/REC-SVG-20010904/DTD/svg10.dtd">
<svg version="1.0" xmlns="http://www.w3.org/2000/svg"
 width="64.000000pt" height="64.000000pt" viewBox="0 0 64.000000 64.000000"
 preserveAspectRatio="xMidYMid meet">

<g transform="translate(0.000000,64.000000) scale(0.100000,-0.100000)"
fill="#000000" stroke="none">
<path d="M138 383 c6 -2 18 -2 25 0 6 3 1 5 -13 5 -14 0 -19 -2 -12 -5z"/>
<path d="M498 363 c6 -2 18 -2 25 0 6 3 1 5 -13 5 -14 0 -19 -2 -12 -5z"/>
<path d="M128 353 c6 -2 18 -2 25 0 6 3 1 5 -13 5 -14 0 -19 -2 -12 -5z"/>
<path d="M508 343 c6 -2 18 -2 25 0 6 3 1 5 -13 5 -14 0 -19 -2 -12 -5z"/>
<path d="M166 291 c-3 -5 2 -7 13 -4 15 4 20 -1 23 -24 2 -22 8 -28 28 -28 21
0 25 5 25 30 0 28 -3 30 -42 33 -22 2 -44 -1 -47 -7z m58 -33 c-5 -8 -2 -9 9
-5 10 3 17 2 17 -3 0 -6 -9 -10 -20 -10 -11 0 -20 7 -20 15 0 8 5 15 11 15 5
0 7 -5 3 -12z"/>
<path d="M384 286 c-11 -29 1 -51 26 -51 20 0 26 6 28 28 3 23 8 28 23 24 10
-3 17 -1 13 4 -9 15 -84 11 -90 -5z m46 -31 c0 -8 -9 -15 -20 -15 -11 0 -20 4
-20 10 0 5 7 6 17 3 11 -4 14 -3 9 5 -4 7 -2 12 3 12 6 0 11 -7 11 -15z"/>
<path d="M308 163 c6 -2 18 -2 25 0 6 3 1 5 -13 5 -14 0 -19 -2 -12 -5z"/>
</g>
</svg>
